<?xml version="1.0" encoding="UTF-8" standalone="no"?>
<svg width="490px" height="113px" viewBox="0 0 490 113" version="1.1" xmlns="http://www.w3.org/2000/svg" xmlns:xlink="http://www.w3.org/1999/xlink">
    <!-- Generator: Sketch 3.8.3 (29802) - http://www.bohemiancoding.com/sketch -->
    <title>Logo</title>
    <desc>Created with Sketch.</desc>
    <defs></defs>
    <g id="Page-1" stroke="none" stroke-width="1" fill="none" fill-rule="evenodd">
        <g id="Logo" transform="translate(0.000000, -21.000000)">
            <path d="M183.204,52.872 L183.204,28.572 L189.252,28.572 C191.34001,28.572 193.094993,28.868997 194.517,29.463 C195.939007,30.057003 197.081996,30.9119944 197.946,32.028 C198.810004,33.1440056 199.430998,34.4849922 199.809,36.051 C200.187002,37.6170078 200.376,39.3719903 200.376,41.316 C200.376,43.4400106 200.106003,45.2399926 199.566,46.716 C199.025997,48.1920074 198.306005,49.3889954 197.406,50.307 C196.505996,51.2250046 195.480006,51.881998 194.328,52.278 C193.175994,52.674002 191.988006,52.872 190.764,52.872 L183.204,52.872 Z M174.726,21.444 L174.726,60 L191.358,60 C194.310015,60 196.874989,59.505005 199.053,58.515 C201.231011,57.5249951 203.048993,56.1660086 204.507,54.438 C205.965007,52.7099914 207.053996,50.6580119 207.774,48.282 C208.494004,45.9059881 208.854,43.314014 208.854,40.506 C208.854,37.301984 208.413004,34.5120119 207.531,32.136 C206.648996,29.7599881 205.425008,27.7800079 203.859,26.196 C202.292992,24.6119921 200.439011,23.424004 198.297,22.632 C196.154989,21.839996 193.842012,21.444 191.358,21.444 L174.726,21.444 Z M232.722,43.044 L220.248,43.044 C220.284,42.5039973 220.400999,41.8920034 220.599,41.208 C220.797001,40.5239966 221.138998,39.8760031 221.625,39.264 C222.111002,38.6519969 222.758996,38.1390021 223.569,37.725 C224.379004,37.3109979 225.395994,37.104 226.62,37.104 C228.492009,37.104 229.886995,37.607995 230.805,38.616 C231.723005,39.624005 232.361998,41.0999903 232.722,43.044 L232.722,43.044 Z M220.248,47.904 L240.39,47.904 C240.534001,45.7439892 240.354003,43.6740099 239.85,41.694 C239.345997,39.7139901 238.527006,37.9500077 237.393,36.402 C236.258994,34.8539923 234.810009,33.6210046 233.046,32.703 C231.281991,31.7849954 229.212012,31.326 226.836,31.326 C224.711989,31.326 222.777009,31.7039962 221.031,32.46 C219.284991,33.2160038 217.782006,34.2509934 216.522,35.565 C215.261994,36.8790066 214.290003,38.435991 213.606,40.236 C212.921997,42.036009 212.58,43.9799896 212.58,46.068 C212.58,48.2280108 212.912997,50.207991 213.579,52.008 C214.245003,53.808009 215.189994,55.3559935 216.414,56.652 C217.638006,57.9480065 219.131991,58.9469965 220.896,59.649 C222.660009,60.3510035 224.639989,60.702 226.836,60.702 C230.004016,60.702 232.703989,59.9820072 234.936,58.542 C237.168011,57.1019928 238.823995,54.7080167 239.904,51.36 L233.154,51.36 C232.901999,52.2240043 232.218006,53.0429961 231.102,53.817 C229.985994,54.5910039 228.654008,54.978 227.106,54.978 C224.945989,54.978 223.290006,54.4200056 222.138,53.304 C220.985994,52.1879944 220.356001,50.3880124 220.248,47.904 L220.248,47.904 Z M244.926,32.082 L244.926,60 L252.594,60 L252.594,45.366 C252.594,42.5219858 253.061995,40.4790062 253.998,39.237 C254.934005,37.9949938 256.44599,37.374 258.534,37.374 C260.370009,37.374 261.647996,37.9409943 262.368,39.075 C263.088004,40.2090057 263.448,41.9279885 263.448,44.232 L263.448,60 L271.116,60 L271.116,42.828 C271.116,41.0999914 270.963002,39.5250071 270.657,38.103 C270.350998,36.6809929 269.820004,35.475005 269.064,34.485 C268.307996,33.4949951 267.273007,32.7210028 265.959,32.163 C264.644993,31.6049972 262.96201,31.326 260.91,31.326 C259.289992,31.326 257.706008,31.6949963 256.158,32.433 C254.609992,33.1710037 253.350005,34.3499919 252.378,35.97 L252.216,35.97 L252.216,32.082 L244.926,32.082 Z M277.65,21.444 L277.65,60 L285.318,60 L285.318,50.388 L288.288,47.526 L295.956,60 L305.244,60 L293.526,42.342 L304.056,32.082 L294.984,32.082 L285.318,42.126 L285.318,21.444 L277.65,21.444 Z M180.342,118.68 L180.342,88.764 L188.982,88.764 C191.358012,88.764 193.355992,89.0969967 194.976,89.763 C196.596008,90.4290033 197.918995,91.4009936 198.945,92.679 C199.971005,93.9570064 200.708998,95.5049909 201.159,97.323 C201.609002,99.1410091 201.834,101.201988 201.834,103.506 C201.834,105.882012 201.591002,107.906992 201.105,109.581 C200.618998,111.255008 199.998004,112.649994 199.242,113.766 C198.485996,114.882006 197.631005,115.763997 196.677,116.412 C195.722995,117.060003 194.760005,117.554998 193.788,117.897 C192.815995,118.239002 191.898004,118.455 191.034,118.545 C190.169996,118.635 189.450003,118.68 188.874,118.68 L180.342,118.68 Z M175.212,84.444 L175.212,123 L188.442,123 C191.646016,123 194.417988,122.550005 196.758,121.65 C199.098012,120.749996 201.023992,119.445009 202.536,117.735 C204.048008,116.024991 205.163996,113.919013 205.884,111.417 C206.604004,108.914987 206.964,106.044016 206.964,102.804 C206.964,96.611969 205.362016,92.0040151 202.158,88.98 C198.953984,85.9559849 194.38203,84.444 188.442,84.444 L175.212,84.444 Z M231.858,106.368 L215.82,106.368 C215.892,105.287995 216.125998,104.271005 216.522,103.317 C216.918002,102.362995 217.457997,101.526004 218.142,100.806 C218.826003,100.085996 219.644995,99.5190021 220.599,99.105 C221.553005,98.6909979 222.623994,98.484 223.812,98.484 C224.964006,98.484 226.016995,98.6909979 226.971,99.105 C227.925005,99.5190021 228.752996,100.076996 229.455,100.779 C230.157004,101.481004 230.714998,102.317995 231.129,103.29 C231.543002,104.262005 231.786,105.287995 231.858,106.368 L231.858,106.368 Z M236.286,114.144 L231.75,114.144 C231.353998,115.980009 230.535006,117.347996 229.293,118.248 C228.050994,119.148005 226.45801,119.598 224.514,119.598 C223.001992,119.598 221.688006,119.346003 220.572,118.842 C219.455994,118.337997 218.538004,117.663004 217.818,116.817 C217.097996,115.970996 216.576002,114.999005 216.252,113.901 C215.927998,112.802995 215.784,111.642006 215.82,110.418 L236.718,110.418 C236.79,108.725992 236.637002,106.944009 236.259,105.072 C235.880998,103.199991 235.197005,101.472008 234.207,99.888 C233.216995,98.3039921 231.903008,96.9990051 230.265,95.973 C228.626992,94.9469949 226.566012,94.434 224.082,94.434 C222.17399,94.434 220.419008,94.7939964 218.817,95.514 C217.214992,96.2340036 215.829006,97.2419935 214.659,98.538 C213.488994,99.8340065 212.580003,101.363991 211.932,103.128 C211.283997,104.892009 210.96,106.835989 210.96,108.96 C211.032,111.084011 211.346997,113.045991 211.905,114.846 C212.463003,116.646009 213.299994,118.193994 214.416,119.49 C215.532006,120.786006 216.908992,121.793996 218.547,122.514 C220.185008,123.234004 222.119989,123.594 224.352,123.594 C227.520016,123.594 230.14799,122.802008 232.236,121.218 C234.32401,119.633992 235.673997,117.276016 236.286,114.144 L236.286,114.144 Z M254.052,123 L264.258,95.082 L259.452,95.082 L251.838,118.356 L251.73,118.356 L243.9,95.082 L238.77,95.082 L249.138,123 L254.052,123 Z M287.856,106.368 L271.818,106.368 C271.89,105.287995 272.123998,104.271005 272.52,103.317 C272.916002,102.362995 273.455997,101.526004 274.14,100.806 C274.824003,100.085996 275.642995,99.5190021 276.597,99.105 C277.551005,98.6909979 278.621994,98.484 279.81,98.484 C280.962006,98.484 282.014995,98.6909979 282.969,99.105 C283.923005,99.5190021 284.750996,100.076996 285.453,100.779 C286.155004,101.481004 286.712998,102.317995 287.127,103.29 C287.541002,104.262005 287.784,105.287995 287.856,106.368 L287.856,106.368 Z M292.284,114.144 L287.748,114.144 C287.351998,115.980009 286.533006,117.347996 285.291,118.248 C284.048994,119.148005 282.45601,119.598 280.512,119.598 C278.999992,119.598 277.686006,119.346003 276.57,118.842 C275.453994,118.337997 274.536004,117.663004 273.816,116.817 C273.095996,115.970996 272.574002,114.999005 272.25,113.901 C271.925998,112.802995 271.782,111.642006 271.818,110.418 L292.716,110.418 C292.788,108.725992 292.635002,106.944009 292.257,105.072 C291.878998,103.199991 291.195005,101.472008 290.205,99.888 C289.214995,98.3039921 287.901008,96.9990051 286.263,95.973 C284.624992,94.9469949 282.564012,94.434 280.08,94.434 C278.17199,94.434 276.417008,94.7939964 274.815,95.514 C273.212992,96.2340036 271.827006,97.2419935 270.657,98.538 C269.486994,99.8340065 268.578003,101.363991 267.93,103.128 C267.281997,104.892009 266.958,106.835989 266.958,108.96 C267.03,111.084011 267.344997,113.045991 267.903,114.846 C268.461003,116.646009 269.297994,118.193994 270.414,119.49 C271.530006,120.786006 272.906992,121.793996 274.545,122.514 C276.183008,123.234004 278.117989,123.594 280.35,123.594 C283.518016,123.594 286.14599,122.802008 288.234,121.218 C290.32201,119.633992 291.671997,117.276016 292.284,114.144 L292.284,114.144 Z M297.738,84.444 L297.738,123 L302.328,123 L302.328,84.444 L297.738,84.444 Z M312.804,109.068 C312.804,107.375992 313.028998,105.873007 313.479,104.559 C313.929002,103.244993 314.549996,102.138005 315.342,101.238 C316.134004,100.337996 317.060995,99.6540023 318.123,99.186 C319.185005,98.7179977 320.309994,98.484 321.498,98.484 C322.686006,98.484 323.810995,98.7179977 324.873,99.186 C325.935005,99.6540023 326.861996,100.337996 327.654,101.238 C328.446004,102.138005 329.066998,103.244993 329.517,104.559 C329.967002,105.873007 330.192,107.375992 330.192,109.068 C330.192,110.760008 329.967002,112.262993 329.517,113.577 C329.066998,114.891007 328.446004,115.988996 327.654,116.871 C326.861996,117.753004 325.935005,118.427998 324.873,118.896 C323.810995,119.364002 322.686006,119.598 321.498,119.598 C320.309994,119.598 319.185005,119.364002 318.123,118.896 C317.060995,118.427998 316.134004,117.753004 315.342,116.871 C314.549996,115.988996 313.929002,114.891007 313.479,113.577 C313.028998,112.262993 312.804,110.760008 312.804,109.068 L312.804,109.068 Z M307.944,109.068 C307.944,111.12001 308.231997,113.027991 308.808,114.792 C309.384003,116.556009 310.247994,118.094993 311.4,119.409 C312.552006,120.723007 313.973992,121.748996 315.666,122.487 C317.358008,123.225004 319.301989,123.594 321.498,123.594 C323.730011,123.594 325.682992,123.225004 327.357,122.487 C329.031008,121.748996 330.443994,120.723007 331.596,119.409 C332.748006,118.094993 333.611997,116.556009 334.188,114.792 C334.764003,113.027991 335.052,111.12001 335.052,109.068 C335.052,107.01599 334.764003,105.099009 334.188,103.317 C333.611997,101.534991 332.748006,99.9870066 331.596,98.673 C330.443994,97.3589934 329.031008,96.3240038 327.357,95.568 C325.682992,94.8119962 323.730011,94.434 321.498,94.434 C319.301989,94.434 317.358008,94.8119962 315.666,95.568 C313.973992,96.3240038 312.552006,97.3589934 311.4,98.673 C310.247994,99.9870066 309.384003,101.534991 308.808,103.317 C308.231997,105.099009 307.944,107.01599 307.944,109.068 L307.944,109.068 Z M340.614,95.082 L340.614,133.638 L345.204,133.638 L345.204,119.274 L345.312,119.274 C345.816003,120.102004 346.436996,120.794997 347.175,121.353 C347.913004,121.911003 348.695996,122.351998 349.524,122.676 C350.352004,123.000002 351.188996,123.233999 352.035,123.378 C352.881004,123.522001 353.645997,123.594 354.33,123.594 C356.454011,123.594 358.316992,123.216004 359.919,122.46 C361.521008,121.703996 362.852995,120.669007 363.915,119.355 C364.977005,118.040993 365.768997,116.502009 366.291,114.738 C366.813003,112.973991 367.074,111.10201 367.074,109.122 C367.074,107.14199 366.804003,105.270009 366.264,103.506 C365.723997,101.741991 364.923005,100.185007 363.861,98.835 C362.798995,97.4849933 361.467008,96.414004 359.865,95.622 C358.262992,94.829996 356.382011,94.434 354.222,94.434 C352.27799,94.434 350.496008,94.7849965 348.876,95.487 C347.255992,96.1890035 346.068004,97.3139923 345.312,98.862 L345.204,98.862 L345.204,95.082 L340.614,95.082 Z M362.214,108.798 C362.214,110.166007 362.070001,111.497994 361.782,112.794 C361.493999,114.090006 361.026003,115.241995 360.378,116.25 C359.729997,117.258005 358.875005,118.067997 357.813,118.68 C356.750995,119.292003 355.428008,119.598 353.844,119.598 C352.259992,119.598 350.910006,119.301003 349.794,118.707 C348.677994,118.112997 347.769004,117.330005 347.067,116.358 C346.364996,115.385995 345.852002,114.261006 345.528,112.983 C345.203998,111.704994 345.042,110.382007 345.042,109.014 C345.042,107.717994 345.194998,106.440006 345.501,105.18 C345.807002,103.919994 346.301997,102.795005 346.986,101.805 C347.670003,100.814995 348.551995,100.014003 349.632,99.402 C350.712005,98.7899969 352.025992,98.484 353.574,98.484 C355.050007,98.484 356.336995,98.7719971 357.435,99.348 C358.533005,99.9240029 359.432996,100.697995 360.135,101.67 C360.837004,102.642005 361.358998,103.748994 361.701,104.991 C362.043002,106.233006 362.214,107.501994 362.214,108.798 L362.214,108.798 Z M372.474,95.082 L372.474,123 L377.064,123 L377.064,105.612 C377.064,105.071997 377.198999,104.397004 377.469,103.587 C377.739001,102.776996 378.170997,101.994004 378.765,101.238 C379.359003,100.481996 380.132995,99.8340027 381.087,99.294 C382.041005,98.7539973 383.183993,98.484 384.516,98.484 C385.560005,98.484 386.414997,98.6369985 387.081,98.943 C387.747003,99.2490015 388.277998,99.6809972 388.674,100.239 C389.070002,100.797003 389.348999,101.453996 389.511,102.21 C389.673001,102.966004 389.754,103.793996 389.754,104.694 L389.754,123 L394.344,123 L394.344,105.612 C394.344,103.451989 394.991994,101.724006 396.288,100.428 C397.584006,99.1319935 399.365989,98.484 401.634,98.484 C402.750006,98.484 403.658996,98.6459984 404.361,98.97 C405.063004,99.2940016 405.611998,99.7349972 406.008,100.293 C406.404002,100.851003 406.673999,101.507996 406.818,102.264 C406.962001,103.020004 407.034,103.829996 407.034,104.694 L407.034,123 L411.624,123 L411.624,102.534 C411.624,101.093993 411.399002,99.8610051 410.949,98.835 C410.498998,97.8089949 409.869004,96.9720032 409.059,96.324 C408.248996,95.6759968 407.277006,95.1990015 406.143,94.893 C405.008994,94.5869985 403.740007,94.434 402.336,94.434 C400.499991,94.434 398.817008,94.8479959 397.287,95.676 C395.756992,96.5040041 394.524005,97.6739924 393.588,99.186 C393.011997,97.4579914 392.022007,96.2340036 390.618,95.514 C389.213993,94.7939964 387.648009,94.434 385.92,94.434 C381.99598,94.434 378.99001,96.0179842 376.902,99.186 L376.794,99.186 L376.794,95.082 L372.474,95.082 Z M437.922,106.368 L421.884,106.368 C421.956,105.287995 422.189998,104.271005 422.586,103.317 C422.982002,102.362995 423.521997,101.526004 424.206,100.806 C424.890003,100.085996 425.708995,99.5190021 426.663,99.105 C427.617005,98.6909979 428.687994,98.484 429.876,98.484 C431.028006,98.484 432.080995,98.6909979 433.035,99.105 C433.989005,99.5190021 434.816996,100.076996 435.519,100.779 C436.221004,101.481004 436.778998,102.317995 437.193,103.29 C437.607002,104.262005 437.85,105.287995 437.922,106.368 L437.922,106.368 Z M442.35,114.144 L437.814,114.144 C437.417998,115.980009 436.599006,117.347996 435.357,118.248 C434.114994,119.148005 432.52201,119.598 430.578,119.598 C429.065992,119.598 427.752006,119.346003 426.636,118.842 C425.519994,118.337997 424.602004,117.663004 423.882,116.817 C423.161996,115.970996 422.640002,114.999005 422.316,113.901 C421.991998,112.802995 421.848,111.642006 421.884,110.418 L442.782,110.418 C442.854,108.725992 442.701002,106.944009 442.323,105.072 C441.944998,103.199991 441.261005,101.472008 440.271,99.888 C439.280995,98.3039921 437.967008,96.9990051 436.329,95.973 C434.690992,94.9469949 432.630012,94.434 430.146,94.434 C428.23799,94.434 426.483008,94.7939964 424.881,95.514 C423.278992,96.2340036 421.893006,97.2419935 420.723,98.538 C419.552994,99.8340065 418.644003,101.363991 417.996,103.128 C417.347997,104.892009 417.024,106.835989 417.024,108.96 C417.096,111.084011 417.410997,113.045991 417.969,114.846 C418.527003,116.646009 419.363994,118.193994 420.48,119.49 C421.596006,120.786006 422.972992,121.793996 424.611,122.514 C426.249008,123.234004 428.183989,123.594 430.416,123.594 C433.584016,123.594 436.21199,122.802008 438.3,121.218 C440.38801,119.633992 441.737997,117.276016 442.35,114.144 L442.35,114.144 Z M447.534,95.082 L447.534,123 L452.124,123 L452.124,107.232 C452.124,105.971994 452.294998,104.811005 452.637,103.749 C452.979002,102.686995 453.491997,101.760004 454.176,100.968 C454.860003,100.175996 455.714995,99.5640022 456.741,99.132 C457.767005,98.6999978 458.981993,98.484 460.386,98.484 C462.150009,98.484 463.535995,98.987995 464.544,99.996 C465.552005,101.004005 466.056,102.371991 466.056,104.1 L466.056,123 L470.646,123 L470.646,104.64 C470.646,103.127992 470.493002,101.751006 470.187,100.509 C469.880998,99.2669938 469.350004,98.1960045 468.594,97.296 C467.837996,96.3959955 466.848006,95.6940025 465.624,95.19 C464.399994,94.6859975 462.870009,94.434 461.034,94.434 C456.893979,94.434 453.87001,96.1259831 451.962,99.51 L451.854,99.51 L451.854,95.082 L447.534,95.082 Z M483.93,95.082 L483.93,86.712 L479.34,86.712 L479.34,95.082 L474.588,95.082 L474.588,99.132 L479.34,99.132 L479.34,116.898 C479.34,118.194006 479.465999,119.237996 479.718,120.03 C479.970001,120.822004 480.356997,121.433998 480.879,121.866 C481.401003,122.298002 482.084996,122.594999 482.931,122.757 C483.777004,122.919001 484.793994,123 485.982,123 L489.492,123 L489.492,118.95 L487.386,118.95 C486.665996,118.95 486.081002,118.923 485.631,118.869 C485.180998,118.815 484.830001,118.698001 484.578,118.518 C484.325999,118.337999 484.155,118.086002 484.065,117.762 C483.975,117.437998 483.93,117.006003 483.93,116.466 L483.93,99.132 L489.492,99.132 L489.492,95.082 L483.93,95.082 Z" id="Denk" fill="#293740"></path>
            <g id="Symbol" transform="translate(0.000000, 25.000000)">
                <polygon id="/" fill="#23374B" points="79.5084109 0 54.9756614 92.3544304 66.0153986 96 90.5481481 3.64556962"></polygon>
                <polygon id="&gt;" fill="#141620" transform="translate(122.222186, 47.633898) rotate(180.000000) translate(-122.222186, -47.633898) " points="145.52381 18.5084746 136.939001 8.8 98.9205632 47.6338983 136.939001 86.4677966 145.52381 76.759322 116.09018 47.6338983"></polygon>
                <polygon id="&lt;" fill="#328CA5" points="46.6032463 18.6440678 38.0184378 8.93559322 5.70136162e-14 47.7694915 38.0184378 86.6033898 46.6032463 76.8949153 17.1696171 47.7694915"></polygon>
            </g>
        </g>
    </g>
</svg>